<svg xmlns="http://www.w3.org/2000/svg" xmlns:xlink="http://www.w3.org/1999/xlink" width="500" zoomAndPan="magnify" viewBox="0 0 375 374.999991" height="500" preserveAspectRatio="xMidYMid meet" version="1.0"><defs><clipPath id="9ad8f8142f"><path d="M 234.894531 104 L 374.988281 104 L 374.988281 255.457031 L 234.894531 255.457031 Z M 234.894531 104 " clip-rule="nonzero"/></clipPath><clipPath id="71dfafdb9a"><path d="M 85 219 L 235 219 L 235 373.773438 L 85 373.773438 Z M 85 219 " clip-rule="nonzero"/></clipPath><clipPath id="da53b8d034"><path d="M 64 1.171875 L 240 1.171875 L 240 137 L 64 137 Z M 64 1.171875 " clip-rule="nonzero"/></clipPath></defs><g clip-path="url(#9ad8f8142f)"><path fill="#000000" d="M 355.25 104.566406 C 347.953125 113.71875 340.648438 122.871094 333.351562 132.023438 C 300.558594 173.148438 267.757812 214.277344 234.960938 255.402344 C 277.355469 255.402344 319.746094 255.402344 362.136719 255.402344 C 370.488281 233.921875 374.890625 210.917969 374.988281 187.640625 C 374.863281 158.550781 367.980469 130.144531 355.25 104.566406 " fill-opacity="1" fill-rule="nonzero"/></g><path fill="#000000" d="M 167.25 266.796875 C 193.757812 299.441406 220.269531 332.085938 246.785156 364.734375 C 280.101562 353.8125 310.109375 333.113281 332.441406 306.109375 C 342.40625 294.050781 350.710938 280.816406 357.261719 266.796875 C 346.867188 266.796875 336.472656 266.796875 326.070312 266.796875 C 273.128906 266.796875 220.191406 266.796875 167.25 266.796875 " fill-opacity="1" fill-rule="nonzero"/><g clip-path="url(#71dfafdb9a)"><path fill="#000000" d="M 114.261719 219.527344 C 104.667969 260.597656 95.074219 301.667969 85.480469 342.738281 C 126.449219 370.316406 177.871094 379.707031 226.230469 370.132812 C 229.160156 369.554688 232.078125 368.890625 234.96875 368.160156 C 228.023438 359.609375 221.074219 351.054688 214.132812 342.5 C 180.839844 301.507812 147.550781 260.519531 114.261719 219.527344 " fill-opacity="1" fill-rule="nonzero"/></g><path fill="#000000" d="M 3.875 210.566406 C 3.96875 211.335938 4.054688 212.113281 4.160156 212.886719 C 10.769531 261.601562 36.847656 305.484375 75.480469 335.5 C 77.183594 328.1875 78.894531 320.875 80.601562 313.570312 C 92.714844 261.703125 104.828125 209.832031 116.949219 157.964844 C 79.257812 175.5 41.5625 193.035156 3.875 210.566406 " fill-opacity="1" fill-rule="nonzero"/><g clip-path="url(#da53b8d034)"><path fill="#000000" d="M 239.234375 136.597656 C 228.402344 91.84375 217.570312 47.089844 206.738281 2.335938 C 196.535156 1.320312 186.234375 1.121094 175.941406 1.796875 C 134.53125 4.5 95.070312 21.585938 64.363281 49.027344 C 76.183594 54.949219 88.007812 60.867188 99.828125 66.789062 C 146.296875 90.058594 192.761719 113.328125 239.234375 136.597656 " fill-opacity="1" fill-rule="nonzero"/></g><path fill="#000000" d="M 265.917969 198.425781 C 293.75 163.53125 321.578125 128.632812 349.410156 93.738281 C 340.453125 78.359375 329.300781 64.191406 316.144531 51.769531 C 289.203125 26.335938 255 9.894531 218.835938 3.921875 C 222.089844 17.363281 225.34375 30.804688 228.597656 44.246094 C 241.039062 95.640625 253.476562 147.035156 265.917969 198.425781 " fill-opacity="1" fill-rule="nonzero"/><path fill="#000000" d="M 176.339844 117.824219 C 136.101562 97.671875 95.867188 77.523438 55.628906 57.371094 C 51.914062 61.144531 48.347656 65.074219 44.960938 69.167969 C 15.085938 105.296875 0.132812 152.007812 2.785156 198.5625 C 12.554688 194.015625 22.324219 189.46875 32.09375 184.925781 C 80.179688 162.558594 128.261719 140.191406 176.339844 117.824219 " fill-opacity="1" fill-rule="nonzero"/></svg>